<svg xmlns="http://www.w3.org/2000/svg" viewBox="0 0 24 24"><circle cx="12" cy="12" r="11" fill="none" stroke="#000" stroke-miterlimit="10"/><path d="M11.7 18.4c-1.8 0-3.5-1.1-4.1-2.8-.7-1.7-.3-3.6 1-4.8.2-.2.5-.4.7-.6.2-.2.3-.4.2-.7 0-.2-.1-.3-.1-.5-.2-1.1.1-2 .9-2.7.8-.7 1.7-.9 2.7-.4.7.3 1.2.8 1.4 1.5.1.2.1.3.1.5 0 .3-.2.7-.5.7-.3.1-.6 0-.8-.3L13 8c-.1-.1-.2-.3-.3-.4-.3-.3-.7-.4-1.1-.3-.4.1-.7.5-.7 1 0 .4.2.8.6 1 .1.1.3.1.4.1.1.1.3.1.4.2.3.1.4.5.4.8-.1.3-.2.5-.5.6-.1.1-.3.1-.4.1-.2 0-.5.1-.7.1-1.3.3-2.2 1.5-2.2 2.9.1 1.3 1.1 2.4 2.4 2.7 1.3.2 2.5-.5 3.1-1.7.2-.6.3-1.2.1-1.8 0-.1-.1-.2-.1-.3-.1-.1-.3-.2-.5-.2-.3 0-.5.1-.7.3l-.4.4c-.1.1-.2.2-.3.2-.3.2-.6.1-.8-.1-.3-.2-.3-.4-.3-.7 0-.2.1-.4.3-.5.4-.5.8-.9 1.4-1.1.4-.2.8-.3 1.2-.3l.6-.1c.6-.1 1.1-.4 1.5-.9.1-.1.2-.3.3-.4l.3-.3c.3-.2.5-.2.8-.1.2.1.4.3.4.6 0 .2 0 .5-.1.7-.3.5-.7 1-1.2 1.3-.2.1-.3.2-.5.3-.2.1-.3.3-.2.5 0 .3.1.5.1.7.2 2.1-1 4-3 4.7-.6.3-1.1.4-1.6.4z"/></svg>