<?xml version="1.0" standalone="no"?>
<!DOCTYPE svg PUBLIC "-//W3C//DTD SVG 20010904//EN"
 "http://www.w3.org/TR/2001/REC-SVG-20010904/DTD/svg10.dtd">
<svg version="1.0" xmlns="http://www.w3.org/2000/svg"
 width="700.000000pt" height="700.000000pt" viewBox="0 0 700.000000 700.000000"
 preserveAspectRatio="xMidYMid meet">
<metadata>
Created by potrace 1.11, written by Peter Selinger 2001-2013
</metadata>
<g transform="translate(0.000000,700.000000) scale(0.100000,-0.100000)"
fill="#000000" stroke="none">
<path d="M3457 6854 c-1 -1 -65 -4 -142 -8 -77 -3 -156 -8 -175 -11 -19 -2
-55 -7 -80 -10 -791 -100 -1555 -510 -2081 -1116 -105 -121 -111 -128 -186
-231 -349 -476 -568 -1044 -628 -1623 -3 -33 -8 -79 -11 -103 -2 -24 -5 -129
-5 -235 -1 -177 2 -244 17 -382 3 -27 8 -66 10 -85 2 -19 6 -46 9 -60 3 -14 8
-43 11 -65 3 -22 10 -60 16 -85 5 -25 12 -58 15 -74 2 -15 20 -85 39 -155 288
-1050 1086 -1909 2110 -2271 192 -68 466 -137 613 -155 30 -4 63 -8 74 -11 11
-2 52 -6 91 -9 39 -4 87 -8 106 -11 48 -7 410 -6 490 1 123 10 310 34 320 40
4 2 29 7 56 11 27 3 52 8 55 10 3 2 21 6 40 9 98 17 414 113 524 159 462 197
810 428 1130 751 131 132 172 179 270 305 307 393 513 831 630 1335 26 111 60
346 71 490 7 94 7 435 0 470 -2 11 -7 61 -11 110 -8 108 -37 282 -71 425 -21
91 -83 306 -101 350 -3 8 -7 20 -9 25 -19 75 -170 397 -249 532 -86 146 -276
421 -314 453 -3 3 -33 37 -66 75 -268 314 -642 603 -1030 798 -323 161 -707
278 -1060 322 -27 4 -61 8 -75 11 -40 6 -397 23 -403 18z m207 -299 c88 -3
162 -7 165 -9 3 -2 33 -7 66 -10 238 -26 562 -115 810 -221 438 -187 856 -500
1150 -859 22 -27 45 -54 50 -60 35 -37 193 -270 246 -361 116 -202 256 -533
294 -695 2 -8 13 -50 24 -93 20 -78 55 -257 65 -332 22 -174 26 -253 26 -425
-1 -170 -9 -292 -24 -390 -3 -14 -7 -43 -10 -65 -3 -22 -7 -50 -10 -61 -2 -12
-7 -39 -11 -60 -20 -127 -93 -379 -157 -539 -206 -519 -561 -986 -998 -1314
-52 -39 -99 -74 -105 -79 -78 -61 -360 -219 -495 -277 -47 -20 -98 -43 -115
-50 -85 -37 -327 -113 -429 -135 -142 -29 -205 -42 -231 -45 -72 -10 -205 -25
-260 -30 -71 -6 -377 -7 -420 0 -16 2 -60 6 -97 9 -127 10 -325 45 -468 82
-717 187 -1345 630 -1762 1244 -112 165 -187 301 -281 510 -91 201 -188 539
-213 745 -3 22 -7 51 -9 65 -33 250 -35 500 -4 760 16 144 19 161 50 302 67
308 193 628 350 890 54 90 212 324 228 338 3 3 38 43 77 90 206 247 529 517
814 679 337 192 766 336 1125 377 33 3 69 8 80 10 11 2 81 7 155 10 74 4 137
8 138 10 2 1 9 1 15 -1 7 -2 84 -6 171 -10z"/>
<path d="M3330 5340 c-88 -24 -151 -52 -229 -105 -178 -119 -301 -287 -352
-481 -26 -98 -28 -272 -5 -389 40 -199 41 -216 19 -266 -15 -34 -49 -70 -139
-149 -152 -132 -231 -215 -297 -315 -77 -116 -150 -279 -173 -386 -14 -66 -25
-133 -29 -167 -6 -54 -7 -245 -1 -262 2 -8 7 -37 10 -65 20 -180 130 -453 249
-614 83 -112 227 -242 354 -319 293 -177 673 -234 958 -145 83 26 305 121 395
170 164 88 340 248 444 402 89 133 166 311 195 451 6 30 14 66 17 80 12 52 11
345 -1 406 -14 66 -27 156 -27 192 0 39 29 69 124 127 143 87 166 105 236 175
63 63 118 131 177 218 35 53 53 132 51 229 -1 63 -6 78 -31 115 -37 53 -106
90 -172 91 -95 1 -172 -55 -288 -207 -140 -184 -296 -280 -509 -312 -21 -3
-48 -8 -60 -10 -11 -2 -43 -7 -71 -9 -27 -3 -70 -8 -95 -12 -25 -3 -52 -7 -60
-8 -71 -9 -290 -104 -375 -162 -64 -43 -295 -280 -308 -316 -11 -29 -13 -113
-4 -159 8 -39 48 -85 116 -132 32 -23 52 -29 94 -29 76 0 131 30 233 129 117
114 144 133 201 148 62 16 123 11 173 -14 45 -23 50 -30 80 -120 25 -75 36
-256 19 -330 -42 -185 -61 -232 -132 -330 -243 -335 -660 -458 -1004 -296
-354 168 -564 534 -503 878 14 81 33 143 59 201 12 25 21 49 21 53 0 22 120
181 179 236 114 108 273 189 400 204 25 2 53 7 62 10 19 5 74 13 140 19 50 4
119 35 157 69 35 31 74 115 74 157 -1 52 -18 110 -44 150 -28 41 -164 113
-232 122 -83 12 -171 84 -214 177 -22 45 -26 70 -27 140 0 73 4 93 28 142 16
32 47 74 70 93 103 88 284 84 395 -10 18 -15 65 -73 104 -129 92 -131 122
-162 174 -182 46 -17 112 -13 170 11 89 37 130 209 79 331 -78 184 -140 271
-250 349 -73 52 -223 125 -310 150 -85 24 -234 27 -315 5z"/>
</g>
</svg>
