<svg xmlns="http://www.w3.org/2000/svg" viewBox="0 0 370.2 87.6"><path d="M89.4 86.1c.2 0 .4.1.5.2.1.1.2.3.2.5s-.1.4-.2.5c-.1.1-.3.2-.5.2-.7 0-1.2-.2-1.7-.6s-.8-.9-.9-1.6v-.1l-.1-.1c-.1 0-.1-.1-.2-.1h-1c-.2 0-.3.1-.4.2-.1.1-.2.3-.2.4v1.3c0 .2-.1.4-.2.5-.1.1-.3.2-.5.2s-.4-.1-.5-.2c-.1-.1-.2-.3-.2-.5v-7.2c0-.2.1-.4.2-.5 0-.2.1-.2.3-.2h2.7c.4 0 .8.1 1.2.2.4.2.7.4 1 .6.3.3.5.6.6 1 .2.4.2.8.2 1.2 0 .5-.1.9-.3 1.3s-.5.7-.8 1c-.2.2-.3.3-.4.5s0 .3 0 .4c0 .1.1.2.1.3.3.5.6.6 1.1.6zm-4.7-5.7v2.5c0 .2.1.3.2.4s.3.2.4.2h1.3c.2 0 .4 0 .6-.1.2-.1.4-.2.5-.3.1-.1.3-.3.3-.5s.1-.4.1-.6c0-.2 0-.4-.1-.6-.1-.2-.2-.4-.3-.5s-.3-.3-.5-.3c-.2-.1-.4-.1-.6-.1h-1.9zM98.1 86.1c.2 0 .4.1.5.2.1.1.2.3.2.5s-.1.4-.2.5c-.1.1-.3.2-.5.2h-3.8c-.3 0-.6-.1-.8-.3s-.3-.4-.3-.7V80c0-.3.1-.5.3-.7.2-.2.5-.3.8-.3H98c.2 0 .4.1.5.2.1.1.2.3.2.5s-.1.4-.2.5c-.1.1-.3.2-.5.2h-2.8c-.2 0-.3.1-.5.2s-.2.3-.2.5V81.7c0 .2.1.3.2.5.1.1.3.2.5.2H97.1c.2 0 .4.1.5.2s.2.3.2.5-.1.4-.2.5c-.1.1-.3.2-.5.2h-2c-.2 0-.3.1-.5.2-.1.1-.2.3-.2.5v1c0 .2.1.4.2.5.1.1.3.2.5.2h3zM108.3 86.6c.1.2.1.4 0 .5-.1.2-.2.3-.4.4-.2.1-.4.1-.5 0-.2-.1-.3-.2-.4-.4l-.2-.6c-.1-.2-.2-.3-.4-.4s-.4-.2-.5-.2H104.2c-.2 0-.4.1-.6.2s-.3.3-.3.4l-.2.6c0 .1-.1.3-.3.3s-.3.1-.4.1h-.2c-.2-.1-.3-.2-.4-.4-.1-.2-.1-.4 0-.5l2.6-7.1c0-.1.1-.3.3-.3.1-.1.3-.1.4-.1.2 0 .3 0 .4.1l.3.3 2.5 7.1zm-3.4-2.1h.4c.2 0 .3-.1.4-.2s.1-.3 0-.5l-.5-1.4c-.1-.2-.1-.3-.2-.3s-.2.1-.2.3l-.1.1-.4 1.2c-.1.2-.1.3 0 .5.1.1.2.2.4.2h.2zM116.2 86.1c.2 0 .4.1.5.2.1.1.2.3.2.5s-.1.4-.2.5c-.1.1-.3.2-.5.2H113c-.3 0-.6-.1-.8-.3-.2-.2-.3-.4-.3-.7v-6.7c0-.2.1-.4.2-.5.1-.1.3-.2.5-.2s.4.1.5.2c.1.1.2.3.2.5v5.8c0 .2.1.3.2.5.1.1.3.2.5.2h2.2zM131.1 86.1c.2 0 .4.1.5.2.1.1.2.3.2.5s-.1.4-.2.5c-.1.1-.3.2-.5.2h-3.8c-.3 0-.6-.1-.8-.3s-.3-.4-.3-.7V80c0-.3.1-.5.3-.7.2-.2.5-.3.8-.3h3.7c.2 0 .4.1.5.2.1.1.2.3.2.5s-.1.4-.2.5c-.1.1-.3.2-.5.2h-2.8c-.2 0-.3.1-.5.2s-.2.3-.2.5V81.7c0 .2.1.3.2.5.1.1.3.2.5.2H130.1c.2 0 .4.1.5.2s.2.3.2.5-.1.4-.2.5c-.1.1-.3.2-.5.2h-2c-.2 0-.3.1-.5.2-.1.1-.2.3-.2.5v1c0 .2.1.4.2.5.1.1.3.2.5.2h3zM139.8 83.2c.3.3.6.6.7.9.2.4.2.8.1 1.3 0 .3-.1.6-.3.8-.1.3-.3.5-.6.7-.5.4-1.2.7-2.1.7-.4 0-.8-.1-1.2-.2-.4-.1-.7-.3-1-.6-.3-.2-.5-.5-.6-.8-.1-.3-.2-.6-.2-.9v-.2c0-.2.1-.4.2-.5.1-.1.3-.2.5-.2s.4.1.5.2c.1.1.2.3.2.5v.2c0 .1 0 .2.1.3l.3.3c.1.1.3.2.5.3s.4.1.7.1c.3 0 .6 0 .8-.1.2-.1.4-.2.5-.3.1-.1.2-.2.2-.3 0-.1.1-.2.1-.2v-.5c0-.1-.1-.3-.3-.4-.1-.1-.3-.2-.6-.3-.2-.1-.5-.2-.9-.3-.6-.2-1.1-.4-1.4-.7-.3-.2-.5-.5-.7-.8-.2-.4-.3-.8-.2-1.2 0-.3.1-.5.2-.7s.3-.4.5-.6c.5-.4 1.1-.6 1.8-.6.4 0 .7.1 1 .2.3.1.6.3.8.5.2.2.4.4.5.7.1.3.2.5.2.8 0 .2-.1.4-.2.5-.1.1-.3.2-.5.2s-.4-.1-.5-.2-.2-.3-.2-.5c0-.1 0-.1-.1-.2 0-.1-.1-.2-.2-.2-.1-.1-.2-.1-.4-.2-.1-.1-.3-.1-.5-.1-.4 0-.7.1-.9.3l-.2.2c0 .1 0 .1-.1.2 0 .2 0 .3.1.4l.3.3c.1.1.3.2.5.3.2.1.3.1.5.2.3.1.6.2 1 .3.5 0 .8.2 1.1.4zM149.2 79c.2 0 .4.1.5.2s.2.3.2.5-.1.4-.2.5c-.1.1-.3.2-.5.2h-1.3c-.2 0-.3.1-.5.2s-.2.3-.2.5v5.7c0 .2-.1.4-.2.5-.1.1-.3.2-.5.2s-.4-.1-.5-.2c-.1-.1-.2-.3-.2-.5v-5.7c0-.2-.1-.3-.2-.5s-.3-.2-.5-.2h-1.3c-.2 0-.4-.1-.5-.2-.1-.1-.2-.3-.2-.5s.1-.4.2-.5.3-.2.5-.2h5.4zM158 86.6c.1.2.1.4 0 .5-.1.2-.2.3-.4.4-.2.1-.4.1-.5 0-.2-.1-.3-.2-.4-.4l-.2-.6c-.1-.2-.2-.3-.4-.4-.2-.1-.4-.2-.5-.2H154c-.2 0-.4.1-.6.2s-.3.3-.3.4l-.2.6c0 .1-.1.3-.3.3s-.3.1-.4.1h-.2c-.2-.1-.3-.2-.4-.4-.1-.2-.1-.4 0-.5l2.6-7.1c0-.1.1-.3.3-.3s.3-.1.4-.1c.2 0 .3 0 .4.1l.3.3 2.4 7.1zm-3.3-2.1h.4c.2 0 .3-.1.4-.2.1-.1.1-.3 0-.5l-.5-1.4c-.1-.2-.1-.3-.2-.3s-.2.1-.2.3l-.1.1-.4 1.2c-.1.2 0 .3 0 .5s.2.2.4.2h.2zM165.5 79c.2 0 .4.1.5.2.1.1.2.3.2.5s-.1.4-.2.5c-.1.1-.3.2-.5.2h-1.3c-.2 0-.3.1-.5.2s-.2.3-.2.5v5.7c0 .2-.1.4-.2.5s-.3.2-.5.2-.4-.1-.5-.2-.2-.3-.2-.5v-5.7c0-.2-.1-.3-.2-.5s-.3-.2-.5-.2h-1.3c-.2 0-.4-.1-.5-.2-.1-.1-.2-.3-.2-.5s.1-.4.2-.5c.1-.1.3-.2.5-.2h5.4zM174.2 86.1c.2 0 .4.1.5.2.1.1.2.3.2.5s-.1.4-.2.5c-.1.1-.3.2-.5.2h-3.8c-.3 0-.6-.1-.8-.3s-.3-.4-.3-.7V80c0-.3.1-.5.3-.7.2-.2.5-.3.8-.3h3.7c.2 0 .4.1.5.2.1.1.2.3.2.5s-.1.4-.2.5c-.1.1-.3.2-.5.2h-2.8c-.2 0-.3.1-.5.2s-.2.3-.2.5V81.7c0 .2.1.3.2.5.1.1.3.2.5.2H173.2c.2 0 .4.1.5.2.1.1.2.3.2.5s-.1.4-.2.5c-.1.1-.3.2-.5.2h-2c-.2 0-.3.1-.5.2-.1.1-.2.3-.2.5v1c0 .2.1.4.2.5.1.1.3.2.5.2h3zM188.6 83.2c0 .1 0 .2-.1.3-.1.2-.3.3-.5.3H187.4c-.1 0-.2 0-.3.1s-.1.2-.1.3V84.8c0 .2-.1.4-.3.5 0 0-.1 0-.1.1h-.2c-.1 0-.2 0-.3-.1-.2-.1-.3-.3-.3-.5V84.2c0-.1 0-.2-.1-.3s-.2-.1-.3-.1h-.5c-.2 0-.4-.1-.5-.3-.1-.1-.1-.2-.1-.3 0-.1 0-.2.1-.3.1-.2.3-.3.5-.3h.5c.1 0 .2 0 .3-.1s.1-.2.1-.3V81.6c0-.2.1-.4.3-.5.1-.1.2-.1.3-.1h.2s.1 0 .1.1c.2.1.3.3.3.5V82.2c0 .1 0 .2.1.3s.2.1.3.1H188c.2 0 .4.1.5.3.1.1.1.2.1.3zM204.1 86.1c.2 0 .4.1.5.2.1.1.2.3.2.5s-.1.4-.2.5c-.1.1-.3.2-.5.2-.7 0-1.2-.2-1.7-.6s-.8-.9-.9-1.6v-.1l-.1-.1c-.1 0-.1-.1-.2-.1h-1c-.2 0-.3.1-.4.2-.1.1-.2.3-.2.4v1.3c0 .2-.1.4-.2.5-.1.1-.3.2-.5.2s-.4-.1-.5-.2c-.1-.1-.2-.3-.2-.5v-7.2c0-.2.1-.4.2-.5.1-.1.3-.2.5-.2h2.7c.4 0 .8.1 1.2.2.4.2.7.4 1 .6.3.3.5.6.6 1 .2.4.2.8.2 1.2 0 .5-.1.9-.3 1.3s-.5.7-.8 1c-.2.2-.3.3-.4.5s0 .3 0 .4c0 .1.1.2.1.3.2.5.5.6.9.6zm-4.6-5.7v2.5c0 .2.1.3.2.4s.3.2.4.2h1.3c.2 0 .4 0 .6-.1.2-.1.4-.2.5-.3.1-.1.3-.3.3-.5s.1-.4.1-.6c0-.2 0-.4-.1-.6-.1-.2-.2-.4-.3-.5s-.3-.3-.5-.3c-.2-.1-.4-.1-.6-.1h-1.9zM212.9 86.1c.2 0 .4.1.5.2.1.1.2.3.2.5s-.1.4-.2.5c-.1.1-.3.2-.5.2h-3.8c-.3 0-.6-.1-.8-.3s-.3-.4-.3-.7V80c0-.3.1-.5.3-.7.2-.2.5-.3.8-.3h3.7c.2 0 .4.1.5.2.1.1.2.3.2.5s-.1.4-.2.5c-.1.1-.3.2-.5.2H210c-.2 0-.3.1-.5.2s-.2.3-.2.5V81.7c0 .2.1.3.2.5.1.1.3.2.5.2H211.9c.2 0 .4.1.5.2s.2.3.2.5-.1.4-.2.5c-.1.1-.3.2-.5.2h-2c-.2 0-.3.1-.5.2-.1.1-.2.3-.2.5v1c0 .2.1.4.2.5.1.1.3.2.5.2h3zM222.6 79.1c.2 0 .4.1.5.2.1.1.2.3.2.5v7.1c0 .2 0 .3-.1.4-.1.1-.2.2-.4.3h-.2c-.2 0-.4-.1-.6-.3l-2.4-3.5-.6-.8c-.1-.1-.1-.2-.2-.2s-.2-.1-.2 0c-.1 0-.1.1-.2.1 0 .1-.1.2-.1.3v3.7c0 .2-.1.4-.2.5-.1.1-.3.2-.5.2s-.4-.1-.5-.2c-.1-.1-.2-.3-.2-.5v-7.1c0-.2 0-.3.1-.4s.2-.2.4-.3h.4c.1 0 .3.1.4.3l2.3 3.3.7 1c.1.1.1.2.2.2s.1.1.2 0c.1 0 .1-.1.2-.1.1-.1.1-.2.1-.3v-3.8c0-.2.1-.4.2-.5.1-.1.3-.1.5-.1zM231.2 79.1c.6 0 1.1.1 1.6.3s1 .5 1.4.9.7.9.9 1.4c.2.5.3 1 .3 1.6s-.1 1.1-.3 1.6-.5 1-.9 1.4-.9.7-1.4.9-1 .3-1.6.3-1.1-.1-1.6-.3-1-.5-1.4-.9c-.8-.8-1.2-1.8-1.2-3 0-.6.1-1.1.3-1.6.2-.5.5-1 .9-1.4s.9-.7 1.4-.9 1-.3 1.6-.3zm0 7c.4 0 .8-.1 1.1-.2.3-.1.6-.3.9-.6.3-.3.5-.6.6-.9s.2-.7.2-1.1-.1-.8-.2-1.1-.4-.6-.6-.9c-.3-.3-.6-.5-.9-.6-.3-.1-.7-.2-1.1-.2-.4 0-.8.1-1.1.2s-.6.3-.9.6c-.3.3-.5.6-.6.9s-.2.7-.2 1.1.1.8.2 1.1.4.6.6.9c.3.3.6.5.9.6s.7.2 1.1.2zM244.2 79.1c.2.1.3.2.4.4s.1.4 0 .5l-2.6 7.1c-.1.1-.1.2-.3.3s-.3.1-.4.1c-.1 0-.3 0-.4-.1l-.3-.3L238 80c-.1-.2-.1-.4 0-.5s.2-.3.4-.4c.2-.1.4-.1.5 0s.3.2.4.4l1.3 3.6.2.6c.1.2.2.2.4.2s.3-.1.4-.2l.2-.6 1.3-3.6c.1-.2.2-.3.4-.4.4-.1.5-.1.7 0zM252.8 86.6c.1.2.1.4 0 .5-.1.2-.2.3-.4.4-.2.1-.4.1-.5 0-.2-.1-.3-.2-.4-.4l-.2-.6c-.1-.2-.2-.3-.4-.4-.2-.1-.4-.2-.5-.2H248.7c-.2 0-.4.1-.6.2s-.3.3-.3.4l-.2.6c0 .1-.1.3-.3.3s-.3.1-.4.1h-.2c-.2-.1-.3-.2-.4-.4-.1-.2-.1-.4 0-.5l2.6-7.1c0-.1.1-.3.3-.3s.3-.1.4-.1c.2 0 .3 0 .4.1l.3.3 2.5 7.1zm-3.3-2.1h.4c.2 0 .3-.1.4-.2.1-.1.1-.3 0-.5l-.5-1.4c-.1-.2-.1-.3-.2-.3s-.2.1-.2.3l-.1.1-.4 1.2c-.1.2 0 .3 0 .5s.2.2.4.2h.2zM260.2 79c.2 0 .4.1.5.2.1.1.2.3.2.5s-.1.4-.2.5c-.1.1-.3.2-.5.2h-1.3c-.2 0-.3.1-.5.2s-.2.3-.2.5v5.7c0 .2-.1.4-.2.5s-.3.2-.5.2-.4-.1-.5-.2-.2-.3-.2-.5v-5.7c0-.2-.1-.3-.2-.5s-.3-.2-.5-.2h-1.3c-.2 0-.4-.1-.5-.2-.1-.1-.2-.3-.2-.5s.1-.4.2-.5c.1-.1.3-.2.5-.2h5.4zM264.8 79.1c.2 0 .4.1.5.2.1.1.2.3.2.5v7.1c0 .2-.1.4-.2.5-.1.1-.3.2-.5.2s-.4-.1-.5-.2c-.1-.1-.2-.3-.2-.5v-7.1c0-.2.1-.4.2-.5.1-.2.3-.2.5-.2zM273.3 79.1c.6 0 1.1.1 1.6.3s1 .5 1.4.9.7.9.9 1.4c.2.5.3 1 .3 1.6s-.1 1.1-.3 1.6-.5 1-.9 1.4-.9.7-1.4.9-1 .3-1.6.3-1.1-.1-1.6-.3-1-.5-1.4-.9c-.8-.8-1.2-1.8-1.2-3 0-.6.1-1.1.3-1.6.2-.5.5-1 .9-1.4s.9-.7 1.4-.9 1.1-.3 1.6-.3zm0 7c.4 0 .8-.1 1.1-.2.3-.1.6-.3.9-.6.3-.3.5-.6.6-.9s.2-.7.2-1.1-.1-.8-.2-1.1-.4-.6-.6-.9c-.3-.3-.6-.5-.9-.6-.3-.1-.7-.2-1.1-.2-.4 0-.8.1-1.1.2s-.6.3-.9.6c-.3.3-.5.6-.6.9s-.2.7-.2 1.1.1.8.2 1.1.4.6.6.9c.3.3.6.5.9.6s.7.2 1.1.2zM286.8 79.1c.2 0 .4.1.5.2.1.1.2.3.2.5v7.1c0 .2 0 .3-.1.4-.1.1-.2.2-.4.3h-.2c-.2 0-.4-.1-.6-.3l-2.4-3.5-.6-.8c-.1-.1-.1-.2-.2-.2s-.2-.1-.2 0c-.1 0-.1.1-.2.1 0 .1-.1.2-.1.3v3.7c0 .2-.1.4-.2.5-.1.1-.3.2-.5.2s-.4-.1-.5-.2c-.1-.1-.2-.3-.2-.5v-7.1c0-.2 0-.3.1-.4s.2-.2.4-.3h.4c.1 0 .3.1.4.3l2.3 3.3.7 1c.1.1.1.2.2.2s.1.1.2 0c.1 0 .1-.1.2-.1.1-.1.1-.2.1-.3v-3.8c0-.2.1-.4.2-.5.1-.1.3-.1.5-.1z"/><g><path d="M8.6 43.8H3.5c-.5 0-1.1 0-1.6-.1-1-.2-1.7-1.1-1.8-2.1C0 41 0 40.5 0 40V23.4 22c0-.3.1-.6.2-1 .2-.7.8-1.2 1.5-1.4.4-.1.9-.1 1.4-.1h11.1c3.1.4 5.3 3.1 5 6.1 0 .5-.1 1.1-.2 1.6 0 .6.1 1.2.6 1.6.3.3.5.6.8.8 3 3.1 3.5 8.4-.5 12-1.1 1-2.4 1.5-3.7 1.8-.8.1-1.6.1-2.4.2H8.6zm1.7-4.1h3.8c.7 0 1.4-.1 2.1-.4 1.5-.7 2.5-2.3 2.4-4-.1-1.6-1.3-3.1-3-3.6-.5-.1-.9-.1-1.4-.1H6.1c-.3 0-.5 0-.8.1-.5.1-1 .5-1.1 1.1v5.5c0 .9.5 1.4 1.3 1.5h4.8zm-1-12.6h3.4c.5 0 1.1-.1 1.5-.4 1-.5 1.1-2 .1-2.6-.2-.2-.6-.3-.9-.4-.3 0-.6-.1-1-.1H6.3c-.4 0-.8 0-1.2.2-.4.1-.7.4-.8.8 0 .1-.1.2-.1.4-.1 1.3.4 2 1.7 2.1H9.3zM54.4 31.8c0 6.1-4.7 11.9-11.8 12-7.1.1-12.1-5.7-12.1-11.9 0-6.6 5.4-12 12-12s11.9 5.4 11.9 11.9zm-11.9-7.7c-4.3 0-7.8 3.5-7.8 7.8 0 4.2 3.4 7.7 7.6 7.8 4.3 0 7.9-3.4 7.9-7.7.1-4.6-3.6-7.9-7.7-7.9zM81 41.8c0 .9-.4 1.5-1.2 1.8s-1.4.2-2-.3c-.3-.3-.6-.7-.9-1.1-.2-.3-.3-.7-.5-1.1-.3-.5-.7-.8-1.3-.9-.4-.1-.8-.1-1.2-.1h-7.2c-1.2 0-1.9.4-2.4 1.5-.2.6-.6 1.1-1 1.5-1 1-2.7.6-3.2-.8-.1-.3-.1-.7 0-1 .2-.7.4-1.3.7-1.9.8-1.8 1.6-3.5 2.4-5.3 1.7-3.6 3.3-7.3 5-11 .2-.5.5-1.1.8-1.6.2-.3.4-.7.7-1 .7-.7 2-.7 2.7 0 .2.3.5.6.7 1l.6 1.2 6.6 16.4c.2.5.4 1 .5 1.5.1.6.2.9.2 1.2zm-10.2-5.6h.8c.5 0 .9 0 1.4-.1.6 0 1-.7.9-1.3-.1-.4-.2-.8-.4-1.1l-1.8-4.2c-.1-.3-.4-.5-.7-.6-.3-.1-.7.2-.9.6 0 .1-.1.2-.2.4l-1.9 4-.3.9c-.1.5.2 1.2.8 1.2.8.1 1.5.1 2.3.2zM89.7 32v-8.2c0-.6 0-1.2.1-1.8.1-1 .8-1.7 1.8-1.9.4-.1.8-.1 1.3-.1h8.7c.7 0 1.5 0 2.2.2 3.3.7 5.6 2.6 6.7 5.9 1.1 3.3.4 6.3-1.9 8.9-.4.4-.9.8-1.2 1.3-.3.3-.4.8-.2 1.3.3.7.7 1.3 1 1.9l.9 1.8c.2.7.1 1.3-.4 1.8-.7.8-1.9.9-2.7.2-.5-.4-.9-.9-1.2-1.5l-1.2-2.1c-.2-.3-.4-.7-.6-1-.4-.5-.9-.8-1.5-.9h-6.1c-1 .1-1.5.6-1.6 1.7v2.2c0 .4-.1.8-.4 1.1-.5.8-1.2 1.1-2 1-.8-.1-1.4-.9-1.6-1.6 0-.4-.1-.9-.1-1.4v-5.4V32zm9.2-7.8h-3c-.3 0-.7 0-1 .1-.5.1-1 .5-1.1 1.1 0 .2-.1.4-.1.6v6.4c.1.7.6 1.2 1.3 1.2H101.7c.5 0 1.1-.1 1.6-.2 2.2-.6 3.5-2.6 3.4-4.8-.1-2.1-1.7-3.8-3.8-4.3-.4-.1-.9-.1-1.4-.1h-2.6zM120.2 31.6v-8.1c0-.6 0-1.2.1-1.8.2-1.1.9-1.8 2-2 .3 0 .7-.1 1-.1h7.7c2.5 0 4.8.8 6.8 2.4 5 3.7 6.4 10.7 3.1 15.9-2.2 3.5-5.4 5.4-9.5 5.7-2 .1-4 .1-6 .1h-2.2c-.4 0-.8 0-1.2-.1-1-.2-1.5-.8-1.7-1.7-.1-.6-.2-1.3-.2-2 .1-2.7.1-5.5.1-8.3zm8.4 8h2.8c3.4-.3 6.2-2.9 7-6.2.7-3.4-.9-6.9-3.9-8.6-1.2-.7-2.5-1-3.8-1h-4.4c-.2 0-.5 0-.8.1-.5.1-1 .5-1 1.1-.1.5-.1 1.1-.1 1.6v10.9c0 .4 0 .8.1 1.2.1.4.4.7.8.8.3.1.7.1 1 .2h2.3zM228.6 32.2v-8.3c0-.7 0-1.3.1-2 .1-.9.7-1.4 1.5-1.6.4-.1.9-.2 1.3-.2h9.4c.6 0 1.2.1 1.8.2 4 .7 7.2 4.3 7.2 8.7 0 4.3-3 7.9-7.3 8.6-.7.1-1.5.1-2.2.2H234.6c-1.4.1-1.9.5-2 1.9v2c0 .4-.1.8-.4 1.2-.5.7-1.2 1.1-2 .9-.8-.1-1.5-.9-1.6-1.6 0-.5-.1-1.1-.1-1.6.1-2.8.1-5.6.1-8.4zm9 1.5h3.2c.7 0 1.3-.1 2-.3 1.9-.7 3.2-2.5 3.1-4.6-.1-2-1.4-3.7-3.4-4.3-.4-.1-.9-.2-1.3-.2h-6.6c-1.3 0-1.8.5-1.8 1.8V32.5c.1.6.6 1.1 1.2 1.2.3 0 .7 0 1 .1h2.6zM259.1 31.9v-7.6-1.8c0-.3 0-.7.1-1 .2-.9 1-1.5 1.8-1.6 1 0 1.8.6 2 1.6.1.6.1 1.2.1 1.8v15c0 .7.6 1.2 1.3 1.2.6 0 1.2.1 1.8.1H277.5c.4 0 .8.1 1.2.3.7.3 1.1.9 1.2 1.7 0 .7-.4 1.4-1.1 1.7-.3.1-.7.3-1.2.3h-16c-.2 0-.5 0-.8-.1-.9-.2-1.6-1-1.7-2v-1.8-7.8zM309.5 41.8c0 .9-.4 1.5-1.2 1.8s-1.4.2-2-.3c-.3-.3-.6-.7-.9-1.1-.2-.3-.3-.7-.5-1.1-.3-.5-.7-.8-1.3-.9-.4-.1-.8-.1-1.2-.1h-7.2c-1.2 0-1.9.4-2.4 1.5-.2.6-.6 1.1-1 1.5-1 1-2.7.6-3.2-.8-.1-.3-.1-.7 0-1 .2-.7.4-1.3.7-1.9.8-1.8 1.6-3.5 2.4-5.3 1.7-3.6 3.3-7.3 5-11 .2-.5.5-1.1.8-1.6.2-.3.4-.7.7-1 .7-.7 2-.7 2.7 0 .2.3.5.6.7 1l.6 1.2 6.6 16.4c.2.5.4 1 .5 1.5.1.6.1.9.2 1.2zm-10.2-5.6h.8c.5 0 .9 0 1.4-.1.6 0 1-.7.9-1.3-.1-.4-.2-.8-.4-1.1l-1.8-4.2c-.1-.3-.4-.5-.7-.6-.3-.1-.7.2-.9.6 0 .1-.1.2-.2.4l-1.9 4.1-.3.9c-.1.5.2 1.2.8 1.2.7 0 1.5 0 2.3.1zM339.2 32v8.4c0 .6 0 1.2-.1 1.8-.2 1-1.2 1.7-2.2 1.6-.4 0-.8-.1-1.1-.4-.5-.5-1.1-1-1.5-1.5-3.2-3.8-6.4-7.6-9.7-11.3-.3-.4-.7-.8-1.1-1.1-.3-.3-.9-.1-1 .3 0 .4-.1.8-.1 1.2v11c0 .7-.4 1.2-.9 1.7-.6.5-1.6.5-2.2 0-.5-.4-.9-.9-.9-1.5 0-.5-.1-1.1-.1-1.6V23.8v-1.4c0-.3.1-.6.2-1 .5-1.2 1.9-1.6 3-.9.5.3.9.8 1.3 1.2 1.4 1.6 2.7 3.2 4.1 4.8 1.9 2.2 3.8 4.5 5.7 6.6.4.5.9 1 1.4 1.4.3.3 1 0 1.1-.4.1-.6.1-1.2.1-1.8v-8.2-1.8c0-.4.1-.8.2-1.2.3-.7.9-1.2 1.7-1.2s1.6.5 1.8 1.3c.1.3.2.8.2 1.2v1.8c.1 2.8.1 5.3.1 7.8zM348.3 32v-7.9-1.8c0-.3.1-.6.3-.9.3-.7.9-1.2 1.7-1.2.8 0 1.4.4 1.7 1.1l.3 1.2V31c0 .5 0 1.1.1 1.6 0 .5.7.7 1.1.4.3-.3.7-.6 1.1-.9 1.3-1.2 2.6-2.5 4-3.8 2.2-2.2 4.4-4.4 6.7-6.6.4-.3.7-.7 1.2-1.1.3-.2.6-.5 1-.6.7-.3 1.6-.1 2.2.5.5.6.6 1.3.3 2.1-.2.6-.6 1-1.1 1.4l-4.4 4.3c-.3.3-.7.6-1 1-1.1 1.1-1.1 1.6-.1 2.9.2.3.5.6.8 1 1.4 1.9 2.9 3.7 4.4 5.7l1 1.2c.2.3.3.6.5.9.4 1 .2 1.9-.6 2.4-.7.5-1.7.5-2.4-.1-.6-.5-1.1-1.1-1.6-1.7-1.5-2-3-3.9-4.5-5.9-.3-.4-.7-.8-1-1.2s-.9-.4-1.3-.1c-.3.1-.6.3-.8.6l-4.3 4.2c-.6.6-1 1.3-1.1 2.3 0 .3 0 .5-.1.8-.2.9-1.2 1.6-2.1 1.5-.9-.1-1.7-.9-1.8-1.8-.1-.6-.1-1.2-.1-1.8V32z"/></g><circle cx="185" cy="30" r="29" fill="none" stroke="#000" stroke-width="2" stroke-miterlimit="10"/><g><path d="M184.3 46.8c-4.8.1-9.1-2.9-10.9-7.3-1.8-4.4-.8-9.4 2.6-12.7.6-.6 1.2-1.1 1.8-1.6.6-.5.8-1.1.6-1.8-.1-.4-.2-.9-.4-1.3-.6-2.8.1-5.3 2.4-7.2 2.2-1.9 4.8-2.2 7.4-1.1 1.8.8 3.1 2.1 3.7 3.9.2.4.2.9.3 1.3 0 .9-.6 1.7-1.4 2-.8.2-1.6 0-2.2-.7l-.5-.9c-.2-.3-.4-.7-.7-1-.8-.9-1.8-1.1-2.9-.8-1.1.3-1.9 1.4-1.9 2.5 0 1.2.5 2 1.5 2.6.3.2.7.2 1.1.4.4.1.8.3 1.1.5.7.4 1.1 1.2 1 2-.1.8-.6 1.3-1.3 1.6-.4.1-.8.2-1.2.2-.6.1-1.2.1-1.8.3-3.5.9-5.9 4-5.7 7.6.2 3.5 2.8 6.4 6.3 7 3.3.6 6.7-1.3 8.1-4.5.6-1.5.8-3.1.4-4.7-.1-.3-.2-.6-.4-.9-.2-.4-.8-.6-1.2-.5-.7 0-1.3.4-1.8.8l-1.2 1.2c-.2.2-.5.4-.8.6-.7.4-1.6.4-2.2-.1-.7-.5-.9-1.2-.8-1.9.1-.5.3-1 .7-1.4 1-1.3 2.2-2.3 3.7-2.9 1.1-.4 2.1-.7 3.3-.9l1.6-.1c1.6-.2 3-1.1 4-2.4.3-.4.5-.8.8-1.1.2-.3.5-.5.7-.7.7-.4 1.3-.5 2.1-.1.6.3 1 .9 1.1 1.6 0 .6-.1 1.2-.4 1.7-.8 1.4-1.9 2.6-3.2 3.5-.4.3-.9.6-1.3.9-.5.4-.7.9-.6 1.4 0 .7.2 1.3.3 2 .6 5.5-2.7 10.7-7.9 12.4-1.3.5-2.7.6-3.9.6z"/></g></svg>