<svg style="border: 0; clip: rect(0 0 0 0); height: 0; overflow: hidden; padding: 0; position: absolute; width: 0;" xmlns="http://www.w3.org/2000/svg" xmlns:xlink="http://www.w3.org/1999/xlink"><symbol viewBox="0 0 24 24" id="icon-ampersand" xmlns="http://www.w3.org/2000/svg"><circle cx="12" cy="12" r="11" fill="none" stroke="#000" stroke-miterlimit="10"/><path d="M11.7 18.4c-1.8 0-3.5-1.1-4.1-2.8-.7-1.7-.3-3.6 1-4.8.2-.2.5-.4.7-.6.2-.2.3-.4.2-.7 0-.2-.1-.3-.1-.5-.2-1.1.1-2 .9-2.7.8-.7 1.7-.9 2.7-.4.7.3 1.2.8 1.4 1.5.1.2.1.3.1.5 0 .3-.2.7-.5.7-.3.1-.6 0-.8-.3L13 8c-.1-.1-.2-.3-.3-.4-.3-.3-.7-.4-1.1-.3-.4.1-.7.5-.7 1 0 .4.2.8.6 1 .1.1.3.1.4.1.1.1.3.1.4.2.3.1.4.5.4.8-.1.3-.2.5-.5.6-.1.1-.3.1-.4.1-.2 0-.5.1-.7.1-1.3.3-2.2 1.5-2.2 2.9.1 1.3 1.1 2.4 2.4 2.7 1.3.2 2.5-.5 3.1-1.7.2-.6.3-1.2.1-1.8 0-.1-.1-.2-.1-.3-.1-.1-.3-.2-.5-.2-.3 0-.5.1-.7.3l-.4.4c-.1.1-.2.2-.3.2-.3.2-.6.1-.8-.1-.3-.2-.3-.4-.3-.7 0-.2.1-.4.3-.5.4-.5.8-.9 1.4-1.1.4-.2.8-.3 1.2-.3l.6-.1c.6-.1 1.1-.4 1.5-.9.1-.1.2-.3.3-.4l.3-.3c.3-.2.5-.2.8-.1.2.1.4.3.4.6 0 .2 0 .5-.1.7-.3.5-.7 1-1.2 1.3-.2.1-.3.2-.5.3-.2.1-.3.3-.2.5 0 .3.1.5.1.7.2 2.1-1 4-3 4.7-.6.3-1.1.4-1.6.4z"/></symbol><symbol viewBox="0 0 24 24" id="icon-facebook" xmlns="http://www.w3.org/2000/svg"><path class="bicon-fill" d="M14.2 4.5H18V0h-3.8C11.4 0 9 2.4 9 5.2v2.2H6V12h3v12h4.5V12h3.8l.7-4.5h-4.5V5.2c0-.4.3-.7.7-.7z"/></symbol><symbol viewBox="0 0 24 24" id="icon-instagram" xmlns="http://www.w3.org/2000/svg"><g class="cicon-fill"><path d="M12 0C8.7 0 8.3 0 7.1.1c-1.3 0-2.2.2-3 .5C3.4.9 2.7 1.3 2 2S.9 3.4.6 4.1c-.3.8-.5 1.7-.5 3C0 8.3 0 8.7 0 12c0 3.3 0 3.7.1 4.9.1 1.3.3 2.1.6 2.9.2.8.6 1.5 1.3 2.2.7.7 1.3 1.1 2.1 1.4.8.3 1.6.5 2.9.6h5c3.3 0 3.7 0 4.9-.1 1.3-.1 2.1-.3 2.9-.6.8-.3 1.5-.7 2.1-1.4.7-.7 1.1-1.3 1.4-2.1.3-.8.5-1.6.6-2.9.1-1.2.1-1.6.1-4.9 0-3.3 0-3.7-.1-4.9-.1-1.3-.3-2.1-.6-2.9-.2-.8-.6-1.5-1.3-2.2S20.7.9 19.9.6C19.1.3 18.3.1 17 0h-5zm0 2.2c3.2 0 3.6 0 4.8.1 1.2.1 1.8.2 2.2.4.6.2 1 .5 1.4.9.4.4.7.8.9 1.4.2.4.4 1.1.4 2.2.1 1.3.1 1.6.1 4.8 0 3.2 0 3.6-.1 4.8-.1 1.2-.2 1.8-.4 2.2-.2.6-.5 1-.9 1.4-.4.4-.8.7-1.4.9-.4.2-1.1.4-2.2.4-1.3.1-1.6.1-4.8.1s-3.6 0-4.8-.1c-1.2-.1-1.8-.2-2.2-.4-.6-.2-1-.5-1.4-.9-.4-.4-.7-.8-.9-1.4-.2-.4-.4-1.1-.4-2.2-.1-1.3-.1-1.6-.1-4.8 0-3.2 0-3.6.1-4.8 0-1.2.2-1.9.3-2.3.2-.6.5-1 .9-1.4.5-.4.9-.6 1.4-.9.4-.1 1.1-.3 2.3-.4H12z"/><path d="M12 16c-2.2 0-4-1.8-4-4s1.8-4 4-4 4 1.8 4 4-1.8 4-4 4m0-10.2c-3.4 0-6.2 2.8-6.2 6.2 0 3.4 2.8 6.2 6.2 6.2s6.2-2.8 6.2-6.2c0-3.4-2.8-6.2-6.2-6.2M19.8 5.6c0 .8-.6 1.4-1.4 1.4-.8 0-1.4-.6-1.4-1.4 0-.8.6-1.4 1.4-1.4.8 0 1.4.6 1.4 1.4"/></g></symbol><symbol viewBox="0 0 24 24" id="icon-twitter" xmlns="http://www.w3.org/2000/svg"><path class="dicon-fill" d="M24 4.6c-.9.4-1.8.7-2.8.8 1-.6 1.8-1.6 2.2-2.7-1 .6-2 1-3.1 1.2-.9-1-2.2-1.6-3.6-1.6-2.7 0-4.9 2.2-4.9 4.9 0 .4 0 .8.1 1.1-4.2-.2-7.8-2.2-10.2-5.2-.4.8-.7 1.6-.7 2.5 0 1.7.9 3.2 2.2 4.1-.8 0-1.6-.2-2.2-.6v.1c0 2.4 1.7 4.4 4 4.8-.4.1-.8.2-1.3.2-.3 0-.6 0-.9-.1.6 2 2.4 3.4 4.6 3.4-1.7 1.3-3.8 2.1-6.1 2.1-.4 0-.8 0-1.2-.1 2.2 1.4 4.8 2.2 7.5 2.2 9.1 0 14-7.5 14-14v-.6c.9-.7 1.7-1.6 2.4-2.5z"/></symbol></svg>